<svg class="main-svg" xmlns="http://www.w3.org/2000/svg" xmlns:xlink="http://www.w3.org/1999/xlink" width="700" height="500" style="" viewBox="0 0 700 500"><rect x="0" y="0" width="700" height="500" style="fill: rgb(255, 255, 255); fill-opacity: 1;"/><defs id="defs-8afaac"><g class="clips"/><g class="gradients"/><g class="patterns"/></defs><g class="bglayer"/><g class="layer-below"><g class="imagelayer"/><g class="shapelayer"/></g><g class="cartesianlayer"/><g class="polarlayer"/><g class="smithlayer"/><g class="ternarylayer"/><g class="geolayer"/><g class="funnelarealayer"/><g class="pielayer"/><g class="iciclelayer"/><g class="treemaplayer"/><g class="sunburstlayer"><g class="trace sunburst" stroke-linejoin="round" style="opacity: 1;"><g class="slice cursor-pointer"><path class="surface" d="M350,250L433.3333333333333,250A83.33333333333333,83.33333333333333 0,0,0 293.32872371288903,188.90326613938862L350,250A0,0 0,0,1 350,250Z" style="pointer-events: all; stroke-width: 1; fill: rgb(31, 119, 180); fill-opacity: 1; stroke: rgb(255, 255, 255); stroke-opacity: 1;"/><g class="slicetext"><text data-notex="1" class="slicetext" text-anchor="middle" x="0" y="0" style="font-family: 'arial narrow'; font-size: 15px; fill: rgb(255, 255, 255); fill-opacity: 1; white-space: pre;" transform="translate(367.31291413920655,215.64802278738182)">PBErel,517</text></g></g><g class="slice cursor-pointer"><path class="surface" d="M350,250L293.32872371288903,188.90326613938862A83.33333333333333,83.33333333333333 0,0,0 277.5987689887831,291.26143711148273L350,250A0,0 0,0,1 350,250Z" style="pointer-events: all; stroke-width: 1; fill: rgb(255, 127, 14); fill-opacity: 1; stroke: rgb(255, 255, 255); stroke-opacity: 1;"/><g class="slicetext"><text data-notex="1" class="slicetext" text-anchor="middle" x="0" y="0" style="font-family: 'arial narrow'; font-size: 15px; fill: rgb(68, 68, 68); fill-opacity: 1; white-space: pre;" transform="translate(291.27178662710236,241.0415033747867)scale(0.8425582808583152)rotate(-81.26338329764451)">HSErel(SOC),299</text></g></g><g class="slice cursor-pointer"><path class="surface" d="M350,250L277.5987689887831,291.26143711148273A83.33333333333333,83.33333333333333 0,0,0 372.96379201353426,330.1068580135533L350,250A0,0 0,0,1 350,250Z" style="pointer-events: all; stroke-width: 1; fill: rgb(44, 160, 44); fill-opacity: 1; stroke: rgb(255, 255, 255); stroke-opacity: 1;"/><g class="slicetext"><text data-notex="1" class="slicetext" text-anchor="middle" x="0" y="0" style="font-family: 'arial narrow'; font-size: 15px; fill: rgb(255, 255, 255); fill-opacity: 1; white-space: pre;" transform="translate(324.1886592785211,313.15942197771835)rotate(22.162740899357686)">HSErel,297</text></g></g><g class="slice cursor-pointer"><path class="surface" d="M350,250L372.96379201353426,330.1068580135533A83.33333333333333,83.33333333333333 0,0,0 431.7161179739497,266.3377020327824L350,250A0,0 0,0,1 350,250Z" style="pointer-events: all; stroke-width: 1; fill: rgb(214, 39, 40); fill-opacity: 1; stroke: rgb(255, 255, 255); stroke-opacity: 1;"/><g class="slicetext"><text data-notex="1" class="slicetext" text-anchor="middle" x="0" y="0" style="font-family: 'arial narrow'; font-size: 15px; fill: rgb(255, 255, 255); fill-opacity: 1; white-space: pre;" transform="translate(403.1797646588044,299.0629772157972)scale(0.630310261745854)rotate(-47.34475374732335)">HSE-PBE(SOC),244</text></g></g><g class="slice cursor-pointer"><path class="surface" d="M350,250L431.7161179739497,266.3377020327824A83.33333333333333,83.33333333333333 0,0,0 433.3333333333333,250.00000000000009L350,250A0,0 0,0,1 350,250Z" style="pointer-events: all; stroke-width: 1; fill: rgb(148, 103, 189); fill-opacity: 1; stroke: rgb(255, 255, 255); stroke-opacity: 1;"/><g class="slicetext"><text data-notex="1" class="slicetext" text-anchor="middle" x="0" y="0" style="font-family: 'arial narrow'; font-size: 15px; fill: rgb(255, 255, 255); fill-opacity: 1; white-space: pre;" transform="translate(419.1450811823747,260.2240433502941)scale(0.6114841310166377)rotate(5.653104925053583)">EXP,44</text></g></g><g class="slice cursor-pointer"><path class="surface" d="M433.3333333333333,250L516.6666666666666,250A166.66666666666666,166.66666666666666 0,0,0 479.4184222092728,144.98262157794943L414.70921110463644,197.49131078897472A83.33333333333333,83.33333333333333 0,0,1 433.3333333333333,250Z" style="pointer-events: all; stroke-width: 1; fill: rgb(31, 119, 180); fill-opacity: 1; stroke: rgb(255, 255, 255); stroke-opacity: 1;"/><g class="slicetext"><text data-notex="1" class="slicetext" text-anchor="middle" x="0" y="0" style="font-family: 'arial narrow'; font-size: 15px; fill: rgb(255, 255, 255); fill-opacity: 1; white-space: pre;" transform="translate(467.73099409126417,213.71469805134424)">X,152</text></g></g><g class="slice cursor-pointer"><path class="surface" d="M414.70921110463644,197.49131078897472L479.4184222092728,144.98262157794943A166.66666666666666,166.66666666666666 0,0,0 385.0539643980277,87.06136935103578L367.52698219901384,168.53068467551788A83.33333333333333,83.33333333333333 0,0,1 414.70921110463644,197.49131078897472Z" style="pointer-events: all; stroke-width: 1; fill: rgb(31, 119, 180); fill-opacity: 1; stroke: rgb(255, 255, 255); stroke-opacity: 1;"/><g class="slicetext"><text data-notex="1" class="slicetext" text-anchor="middle" x="0" y="0" style="font-family: 'arial narrow'; font-size: 15px; fill: rgb(255, 255, 255); fill-opacity: 1; white-space: pre;" transform="translate(415.44716827004845,148.87442973626244)">B,151</text></g></g><g class="slice cursor-pointer"><path class="surface" d="M367.52698219901384,168.53068467551788L385.0539643980277,87.06136935103578A166.66666666666666,166.66666666666666 0,0,0 293.75823153148013,93.1094609056646L321.8791157657401,171.5547304528323A83.33333333333333,83.33333333333333 0,0,1 367.52698219901384,168.53068467551788Z" style="pointer-events: all; stroke-width: 1; fill: rgb(31, 119, 180); fill-opacity: 1; stroke: rgb(255, 255, 255); stroke-opacity: 1;"/><g class="slicetext"><text data-notex="1" class="slicetext" text-anchor="middle" x="0" y="0" style="font-family: 'arial narrow'; font-size: 15px; fill: rgb(255, 255, 255); fill-opacity: 1; white-space: pre;" transform="translate(341.7775691827551,125.01450261960073)">A,124</text></g></g><g class="slice cursor-pointer"><path class="surface" d="M321.8791157657401,171.5547304528323L293.75823153148013,93.1094609056646A166.66666666666666,166.66666666666666 0,0,0 236.65744742577806,127.80653227877724L293.32872371288903,188.90326613938862A83.33333333333333,83.33333333333333 0,0,1 321.8791157657401,171.5547304528323Z" style="pointer-events: all; stroke-width: 1; fill: rgb(31, 119, 180); fill-opacity: 1; stroke: rgb(255, 255, 255); stroke-opacity: 1;"/><g class="slicetext"><text data-notex="1" class="slicetext" text-anchor="middle" x="0" y="0" style="font-family: 'arial narrow'; font-size: 15px; fill: rgb(255, 255, 255); fill-opacity: 1; white-space: pre;" transform="translate(277.8170508008176,136.85033486164863)">pure,90</text></g></g><g class="slice cursor-pointer"><path class="surface" d="M293.32872371288903,188.90326613938862L236.65744742577806,127.80653227877724A166.66666666666666,166.66666666666666 0,0,0 186.64144598461164,216.9581990838996L268.32072299230583,233.4790995419498A83.33333333333333,83.33333333333333 0,0,1 293.32872371288903,188.90326613938862Z" style="pointer-events: all; stroke-width: 1; fill: rgb(255, 127, 14); fill-opacity: 1; stroke: rgb(255, 255, 255); stroke-opacity: 1;"/><g class="slicetext"><text data-notex="1" class="slicetext" text-anchor="middle" x="0" y="0" style="font-family: 'arial narrow'; font-size: 15px; fill: rgb(68, 68, 68); fill-opacity: 1; white-space: pre;" transform="translate(238.68161478511914,193.09182284964825)">B,139</text></g></g><g class="slice cursor-pointer"><path class="surface" d="M268.32072299230583,233.4790995419498L186.64144598461164,216.9581990838996A166.66666666666666,166.66666666666666 0,0,0 186.7912737344421,283.7740943409584L268.395636867221,266.8870471704792A83.33333333333333,83.33333333333333 0,0,1 268.32072299230583,233.4790995419498Z" style="pointer-events: all; stroke-width: 1; fill: rgb(255, 127, 14); fill-opacity: 1; stroke: rgb(255, 255, 255); stroke-opacity: 1;"/><g class="slicetext"><text data-notex="1" class="slicetext" text-anchor="middle" x="0" y="0" style="font-family: 'arial narrow'; font-size: 15px; fill: rgb(68, 68, 68); fill-opacity: 1; white-space: pre;" transform="translate(211.07737711414157,255.81132693927475)">pure,90</text></g></g><g class="slice cursor-pointer"><path class="surface" d="M268.395636867221,266.8870471704792L186.7912737344421,283.7740943409584A166.66666666666666,166.66666666666666 0,0,0 194.343071343024,309.5709521399051L272.171535671512,279.78547606995255A83.33333333333333,83.33333333333333 0,0,1 268.395636867221,266.8870471704792Z" style="pointer-events: all; stroke-width: 1; fill: rgb(255, 127, 14); fill-opacity: 1; stroke: rgb(255, 255, 255); stroke-opacity: 1;"/><g class="slicetext"><text data-notex="1" class="slicetext" text-anchor="middle" x="0" y="0" style="font-family: 'arial narrow'; font-size: 15px; fill: rgb(68, 68, 68); fill-opacity: 1; white-space: pre;" transform="translate(208.3892153971733,297.18610475411583)rotate(-16.31691648822266)">A,36</text></g></g><g class="slice cursor-pointer"><path class="surface" d="M272.171535671512,279.78547606995255L194.343071343024,309.5709521399051A166.66666666666666,166.66666666666666 0,0,0 205.19753797756618,332.5228742229655L277.5987689887831,291.26143711148273A83.33333333333333,83.33333333333333 0,0,1 272.171535671512,279.78547606995255Z" style="pointer-events: all; stroke-width: 1; fill: rgb(255, 127, 14); fill-opacity: 1; stroke: rgb(255, 255, 255); stroke-opacity: 1;"/><g class="slicetext"><text data-notex="1" class="slicetext" text-anchor="middle" x="0" y="0" style="font-family: 'arial narrow'; font-size: 15px; fill: rgb(68, 68, 68); fill-opacity: 1; white-space: pre;" transform="translate(215.90758929701795,319.49927988473405)rotate(-25.310492505353295)">X,34</text></g></g><g class="slice cursor-pointer"><path class="surface" d="M277.5987689887831,291.26143711148273L205.19753797756618,332.5228742229655A166.66666666666666,166.66666666666666 0,0,0 280.60967378996907,401.53468383918994L315.30483689498453,325.76734191959497A83.33333333333333,83.33333333333333 0,0,1 277.5987689887831,291.26143711148273Z" style="pointer-events: all; stroke-width: 1; fill: rgb(44, 160, 44); fill-opacity: 1; stroke: rgb(255, 255, 255); stroke-opacity: 1;"/><g class="slicetext"><text data-notex="1" class="slicetext" text-anchor="middle" x="0" y="0" style="font-family: 'arial narrow'; font-size: 15px; fill: rgb(255, 255, 255); fill-opacity: 1; white-space: pre;" transform="translate(263.81140803150646,349.59656500835763)">B,139</text></g></g><g class="slice cursor-pointer"><path class="surface" d="M315.30483689498453,325.76734191959497L280.60967378996907,401.53468383918994A166.66666666666666,166.66666666666666 0,0,0 345.7025563346728,416.61125338860256L347.8512781673364,333.3056266943013A83.33333333333333,83.33333333333333 0,0,1 315.30483689498453,325.76734191959497Z" style="pointer-events: all; stroke-width: 1; fill: rgb(44, 160, 44); fill-opacity: 1; stroke: rgb(255, 255, 255); stroke-opacity: 1;"/><g class="slicetext"><text data-notex="1" class="slicetext" text-anchor="middle" x="0" y="0" style="font-family: 'arial narrow'; font-size: 15px; fill: rgb(255, 255, 255); fill-opacity: 1; white-space: pre;" transform="translate(318.58647293202716,390.75643890497633)">pure,90</text></g></g><g class="slice cursor-pointer"><path class="surface" d="M347.8512781673364,333.3056266943013L345.7025563346728,416.61125338860256A166.66666666666666,166.66666666666666 0,0,0 371.8006813702225,415.2347060080654L360.90034068511125,332.6173530040327A83.33333333333333,83.33333333333333 0,0,1 347.8512781673364,333.3056266943013Z" style="pointer-events: all; stroke-width: 1; fill: rgb(44, 160, 44); fill-opacity: 1; stroke: rgb(255, 255, 255); stroke-opacity: 1;"/><g class="slicetext"><text data-notex="1" class="slicetext" text-anchor="middle" x="0" y="0" style="font-family: 'arial narrow'; font-size: 15px; fill: rgb(255, 255, 255); fill-opacity: 1; white-space: pre;" transform="translate(352.42929511025494,400.47739454293384)rotate(86.9807280513919)">A,35</text></g></g><g class="slice cursor-pointer"><path class="surface" d="M360.90034068511125,332.6173530040327L371.8006813702225,415.2347060080654A166.66666666666666,166.66666666666666 0,0,0 395.9275840270684,410.21371602710656L372.9637920135342,330.1068580135533A83.33333333333333,83.33333333333333 0,0,1 360.90034068511125,332.6173530040327Z" style="pointer-events: all; stroke-width: 1; fill: rgb(44, 160, 44); fill-opacity: 1; stroke: rgb(255, 255, 255); stroke-opacity: 1;"/><g class="slicetext"><text data-notex="1" class="slicetext" text-anchor="middle" x="0" y="0" style="font-family: 'arial narrow'; font-size: 15px; fill: rgb(255, 255, 255); fill-opacity: 1; white-space: pre;" transform="translate(375.4139772362103,399.11432953967994)rotate(78.24411134903653)">X,33</text></g></g><g class="slice cursor-pointer"><path class="surface" d="M372.96379201353426,330.1068580135533L395.9275840270685,410.21371602710656A166.66666666666666,166.66666666666666 0,0,0 466.32183192954346,369.3608360993371L408.16091596477173,309.68041804966856A83.33333333333333,83.33333333333333 0,0,1 372.96379201353426,330.1068580135533Z" style="pointer-events: all; stroke-width: 1; fill: rgb(214, 39, 40); fill-opacity: 1; stroke: rgb(255, 255, 255); stroke-opacity: 1;"/><g class="slicetext"><text data-notex="1" class="slicetext" text-anchor="middle" x="0" y="0" style="font-family: 'arial narrow'; font-size: 15px; fill: rgb(255, 255, 255); fill-opacity: 1; white-space: pre;" transform="translate(417.1531174918872,371.3606863015714)">B,110</text></g></g><g class="slice cursor-pointer"><path class="surface" d="M408.16091596477173,309.68041804966856L466.32183192954346,369.3608360993371A166.66666666666666,166.66666666666666 0,0,0 501.4567884173847,319.5601827202124L425.72839420869235,284.7800913601062A83.33333333333333,83.33333333333333 0,0,1 408.16091596477173,309.68041804966856Z" style="pointer-events: all; stroke-width: 1; fill: rgb(214, 39, 40); fill-opacity: 1; stroke: rgb(255, 255, 255); stroke-opacity: 1;"/><g class="slicetext"><text data-notex="1" class="slicetext" text-anchor="middle" x="0" y="0" style="font-family: 'arial narrow'; font-size: 15px; fill: rgb(255, 255, 255); fill-opacity: 1; white-space: pre;" transform="translate(465.04786033754283,336.7282711735996)">pure,82</text></g></g><g class="slice cursor-pointer"><path class="surface" d="M425.72839420869235,284.7800913601062L501.4567884173847,319.5601827202124A166.66666666666666,166.66666666666666 0,0,0 508.9762209936857,300.04337055339687L429.48811049684286,275.02168527669846A83.33333333333333,83.33333333333333 0,0,1 425.72839420869235,284.7800913601062Z" style="pointer-events: all; stroke-width: 1; fill: rgb(214, 39, 40); fill-opacity: 1; stroke: rgb(255, 255, 255); stroke-opacity: 1;"/><g class="slicetext"><text data-notex="1" class="slicetext" text-anchor="middle" x="0" y="0" style="font-family: 'arial narrow'; font-size: 15px; fill: rgb(255, 255, 255); fill-opacity: 1; white-space: pre;" transform="translate(490.94931505654733,310.19069394437184)scale(0.998589138758253)rotate(21.070663811563236)">X,28</text></g></g><g class="slice cursor-pointer"><path class="surface" d="M429.48811049684286,275.02168527669846L508.9762209936857,300.04337055339687A166.66666666666666,166.66666666666666 0,0,0 513.4322359478994,282.6754040655647L431.7161179739497,266.3377020327824A83.33333333333333,83.33333333333333 0,0,1 429.48811049684286,275.02168527669846Z" style="pointer-events: all; stroke-width: 1; fill: rgb(214, 39, 40); fill-opacity: 1; stroke: rgb(255, 255, 255); stroke-opacity: 1;"/><g class="slicetext"><text data-notex="1" class="slicetext" text-anchor="middle" x="0" y="0" style="font-family: 'arial narrow'; font-size: 15px; fill: rgb(255, 255, 255); fill-opacity: 1; white-space: pre;" transform="translate(498.84891536108233,293.13533762301785)scale(0.871041698347981)rotate(14.389721627409017)">A,24</text></g></g><g class="slice cursor-pointer"><path class="surface" d="M431.7161179739497,266.3377020327824L513.4322359478994,282.6754040655647A166.66666666666666,166.66666666666666 0,0,0 515.4462755819022,270.13225456462897L432.7231377909511,260.0661272823145A83.33333333333333,83.33333333333333 0,0,1 431.7161179739497,266.3377020327824Z" style="pointer-events: all; stroke-width: 1; fill: rgb(148, 103, 189); fill-opacity: 1; stroke: rgb(255, 255, 255); stroke-opacity: 1;"/><g class="slicetext"><text data-notex="1" class="slicetext" text-anchor="middle" x="0" y="0" style="font-family: 'arial narrow'; font-size: 15px; fill: rgb(255, 255, 255); fill-opacity: 1; white-space: pre;" transform="translate(505.4154431493671,278.5566959143355)scale(0.6465922865640495)rotate(9.122055674518265)">X,17</text></g></g><g class="slice cursor-pointer"><path class="surface" d="M432.7231377909511,260.0661272823145L515.4462755819022,270.13225456462897A166.66666666666666,166.66666666666666 0,0,0 516.2896843760661,261.2035105161756L433.14484218803307,255.6017552580878A83.33333333333333,83.33333333333333 0,0,1 432.7231377909511,260.0661272823145Z" style="pointer-events: all; stroke-width: 1; fill: rgb(148, 103, 189); fill-opacity: 1; stroke: rgb(255, 255, 255); stroke-opacity: 1;"/><g class="slicetext"><text data-notex="1" class="slicetext" text-anchor="middle" x="0" y="0" style="font-family: 'arial narrow'; font-size: 15px; fill: rgb(255, 255, 255); fill-opacity: 1; white-space: pre;" transform="translate(505.89721289375626,267.20677352586085)scale(0.4490427941830689)rotate(5.396145610278381)">pure,12</text></g></g><g class="slice cursor-pointer"><path class="surface" d="M433.14484218803307,255.6017552580878L516.2896843760661,261.2035105161756A166.66666666666666,166.66666666666666 0,0,0 516.5845440778526,255.23139103410958L433.2922720389263,252.6156955170548A83.33333333333333,83.33333333333333 0,0,1 433.14484218803307,255.6017552580878Z" style="pointer-events: all; stroke-width: 1; fill: rgb(148, 103, 189); fill-opacity: 1; stroke: rgb(255, 255, 255); stroke-opacity: 1;"/><g class="slicetext"><text data-notex="1" class="slicetext" text-anchor="middle" x="0" y="0" style="font-family: 'arial narrow'; font-size: 15px; fill: rgb(255, 255, 255); fill-opacity: 1; white-space: pre;" transform="translate(513.1722967138226,259.8527367869502)scale(0.32623514132522624)rotate(2.82655246252682)">B,8</text></g></g><g class="slice cursor-pointer"><path class="surface" d="M433.2922720389263,252.6156955170548L516.5845440778526,255.23139103410958A166.66666666666666,166.66666666666666 0,0,0 516.6666666666666,250.0000000000002L433.3333333333333,250.00000000000009A83.33333333333333,83.33333333333333 0,0,1 433.2922720389263,252.6156955170548Z" style="pointer-events: all; stroke-width: 1; fill: rgb(148, 103, 189); fill-opacity: 1; stroke: rgb(255, 255, 255); stroke-opacity: 1;"/><g class="slicetext"><text data-notex="1" class="slicetext" text-anchor="middle" x="0" y="0" style="font-family: 'arial narrow'; font-size: 15px; fill: rgb(255, 255, 255); fill-opacity: 1; white-space: pre;" transform="translate(513.8045966601933,254.14628063657426)scale(0.28630462151163866)rotate(0.8993576017131204)">A,7</text></g></g><g class="slice"><path class="surface" d="M516.6666666666666,250L600,250A250,250 0,0,0 576.2401687272774,143.62619657898347L500.8267791515182,179.08413105265566A166.66666666666666,166.66666666666666 0,0,1 516.6666666666666,250Z" style="pointer-events: all; stroke-width: 1; fill: rgb(31, 119, 180); fill-opacity: 1; stroke: rgb(255, 255, 255); stroke-opacity: 1; opacity: 0.7;"/><g class="slicetext"><text data-notex="1" class="slicetext" text-anchor="middle" x="0" y="0" style="font-family: 'arial narrow'; font-size: 15px; fill: rgb(255, 255, 255); fill-opacity: 1; white-space: pre;" transform="translate(553.2449981912466,210.08540594109698)">inorganic,98</text></g></g><g class="slice"><path class="surface" d="M500.8267791515182,179.08413105265566L576.2401687272774,143.62619657898347A250,250 0,0,0 544.1276333139092,92.47393236692415L479.4184222092728,144.98262157794943A166.66666666666666,166.66666666666666 0,0,1 500.8267791515182,179.08413105265566Z" style="pointer-events: all; stroke-width: 1; fill: rgb(31, 119, 180); fill-opacity: 1; stroke: rgb(255, 255, 255); stroke-opacity: 1; opacity: 0.7;"/><g class="slicetext"><text data-notex="1" class="slicetext" text-anchor="middle" x="0" y="0" style="font-family: 'arial narrow'; font-size: 15px; fill: rgb(255, 255, 255); fill-opacity: 1; white-space: pre;" transform="translate(528.2149940755046,142.1982256202281)scale(0.6280603314723837)rotate(-32.11991434689503)">inorganic_&amp;_organic,54</text></g></g><g class="slice"><path class="surface" d="M479.4184222092728,144.98262157794943L544.1276333139092,92.47393236692415A250,250 0,0,0 477.41955413965087,34.90872350824503L434.9463694264339,106.60581567216337A166.66666666666666,166.66666666666666 0,0,1 479.4184222092728,144.98262157794943Z" style="pointer-events: all; stroke-width: 1; fill: rgb(31, 119, 180); fill-opacity: 1; stroke: rgb(255, 255, 255); stroke-opacity: 1; opacity: 0.7;"/><g class="slicetext"><text data-notex="1" class="slicetext" text-anchor="middle" x="0" y="0" style="font-family: 'arial narrow'; font-size: 15px; fill: rgb(255, 255, 255); fill-opacity: 1; white-space: pre;" transform="translate(488.78121874997896,94.5861376061425)">inorganic,79</text></g></g><g class="slice"><path class="surface" d="M434.9463694264339,106.60581567216337L477.41955413965087,34.90872350824503A250,250 0,0,0 402.58094659704153,5.5920540265536545L385.0539643980277,87.06136935103578A166.66666666666666,166.66666666666666 0,0,1 434.9463694264339,106.60581567216337Z" style="pointer-events: all; stroke-width: 1; fill: rgb(31, 119, 180); fill-opacity: 1; stroke: rgb(255, 255, 255); stroke-opacity: 1; opacity: 0.7;"/><g class="slicetext"><text data-notex="1" class="slicetext" text-anchor="middle" x="0" y="0" style="font-family: 'arial narrow'; font-size: 15px; fill: rgb(255, 255, 255); fill-opacity: 1; white-space: pre;" transform="translate(429.1759946360637,57.3527354304002)scale(0.6280603314723837)rotate(-68.60813704496786)">inorganic_&amp;_organic,72</text></g></g><g class="slice"><path class="surface" d="M385.0539643980277,87.06136935103578L402.58094659704153,5.5920540265536545A250,250 0,0,0 321.19331880289485,1.66519551539227L330.79554586859655,84.44346367692819A166.66666666666666,166.66666666666666 0,0,1 385.0539643980277,87.06136935103578Z" style="pointer-events: all; stroke-width: 1; fill: rgb(31, 119, 180); fill-opacity: 1; stroke: rgb(255, 255, 255); stroke-opacity: 1; opacity: 0.7;"/><g class="slicetext"><text data-notex="1" class="slicetext" text-anchor="middle" x="0" y="0" style="font-family: 'arial narrow'; font-size: 15px; fill: rgb(255, 255, 255); fill-opacity: 1; white-space: pre;" transform="translate(363.4866732965561,42.15410440388452)scale(0.6280603314723837)rotate(-87.23768736616705)">inorganic_&amp;_organic,73</text></g></g><g class="slice"><path class="surface" d="M330.79554586859655,84.44346367692819L321.19331880289485,1.66519551539227A250,250 0,0,0 265.63734729722023,14.664191358496879L293.75823153148013,93.1094609056646A166.66666666666666,166.66666666666666 0,0,1 330.79554586859655,84.44346367692819Z" style="pointer-events: all; stroke-width: 1; fill: rgb(31, 119, 180); fill-opacity: 1; stroke: rgb(255, 255, 255); stroke-opacity: 1; opacity: 0.7;"/><g class="slicetext"><text data-notex="1" class="slicetext" text-anchor="middle" x="0" y="0" style="font-family: 'arial narrow'; font-size: 15px; fill: rgb(255, 255, 255); fill-opacity: 1; white-space: pre;" transform="translate(297.20600472745866,48.506654874552815)rotate(76.83083511777306)">inorganic,51</text></g></g><g class="slice"><path class="surface" d="M293.75823153148013,93.1094609056646L265.63734729722023,14.664191358496879A250,250 0,0,0 211.66145151227127,41.76348542508609L257.7743010081808,111.1756569500574A166.66666666666666,166.66666666666666 0,0,1 293.75823153148013,93.1094609056646Z" style="pointer-events: all; stroke-width: 1; fill: rgb(31, 119, 180); fill-opacity: 1; stroke: rgb(255, 255, 255); stroke-opacity: 1; opacity: 0.7;"/><g class="slicetext"><text data-notex="1" class="slicetext" text-anchor="middle" x="0" y="0" style="font-family: 'arial narrow'; font-size: 15px; fill: rgb(255, 255, 255); fill-opacity: 1; white-space: pre;" transform="translate(251.62261525231293,66.31162589737777)rotate(63.34047109207711)">inorganic,54</text></g></g><g class="slice"><path class="surface" d="M257.7743010081808,111.1756569500574L211.66145151227127,41.76348542508609A250,250 0,0,0 179.98617113866706,66.70979841816586L236.65744742577806,127.80653227877724A166.66666666666666,166.66666666666666 0,0,1 257.7743010081808,111.1756569500574Z" style="pointer-events: all; stroke-width: 1; fill: rgb(31, 119, 180); fill-opacity: 1; stroke: rgb(255, 255, 255); stroke-opacity: 1; opacity: 0.7;"/><g class="slicetext"><text data-notex="1" class="slicetext" text-anchor="middle" x="0" y="0" style="font-family: 'arial narrow'; font-size: 15px; fill: rgb(255, 255, 255); fill-opacity: 1; white-space: pre;" transform="translate(218.3744558820558,88.45308334327476)scale(0.6280603314723837)rotate(51.77730192719491)">inorganic_&amp;_organic,36</text></g></g><g class="slice"><path class="surface" d="M236.65744742577806,127.80653227877724L179.98617113866706,66.70979841816586A250,250 0,0,0 126.95642769454633,137.07717301970402L201.30428512969758,174.71811534646935A166.66666666666666,166.66666666666666 0,0,1 236.65744742577806,127.80653227877724Z" style="pointer-events: all; stroke-width: 1; fill: rgb(255, 127, 14); fill-opacity: 1; stroke: rgb(255, 255, 255); stroke-opacity: 1; opacity: 0.7;"/><g class="slicetext"><text data-notex="1" class="slicetext" text-anchor="middle" x="0" y="0" style="font-family: 'arial narrow'; font-size: 15px; fill: rgb(68, 68, 68); fill-opacity: 1; white-space: pre;" transform="translate(180.18102540860076,127.58114901558051)">inorganic,79</text></g></g><g class="slice"><path class="surface" d="M201.30428512969758,174.71811534646935L126.95642769454633,137.07717301970402A250,250 0,0,0 104.96216897691741,200.4372986258494L186.64144598461164,216.9581990838996A166.66666666666666,166.66666666666666 0,0,1 201.30428512969758,174.71811534646935Z" style="pointer-events: all; stroke-width: 1; fill: rgb(255, 127, 14); fill-opacity: 1; stroke: rgb(255, 255, 255); stroke-opacity: 1; opacity: 0.7;"/><g class="slicetext"><text data-notex="1" class="slicetext" text-anchor="middle" x="0" y="0" style="font-family: 'arial narrow'; font-size: 15px; fill: rgb(68, 68, 68); fill-opacity: 1; white-space: pre;" transform="translate(152.0365319157629,184.93729601606574)scale(0.6280603314723837)rotate(19.14346895074948)">inorganic_&amp;_organic,60</text></g></g><g class="slice"><path class="surface" d="M186.64144598461164,216.9581990838996L104.96216897691741,200.4372986258494A250,250 0,0,0 100.22686891472935,260.64814480837856L183.48457927648624,257.0987632055857A166.66666666666666,166.66666666666666 0,0,1 186.64144598461164,216.9581990838996Z" style="pointer-events: all; stroke-width: 1; fill: rgb(255, 127, 14); fill-opacity: 1; stroke: rgb(255, 255, 255); stroke-opacity: 1; opacity: 0.7;"/><g class="slicetext"><text data-notex="1" class="slicetext" text-anchor="middle" x="0" y="0" style="font-family: 'arial narrow'; font-size: 15px; fill: rgb(68, 68, 68); fill-opacity: 1; white-space: pre;" transform="translate(141.90905593469898,239.15160803293358)rotate(4.496788008565318)">inorganic,54</text></g></g><g class="slice"><path class="surface" d="M183.48457927648624,257.0987632055857L100.22686891472935,260.64814480837856A250,250 0,0,0 105.1869106016631,300.6611415114376L186.7912737344421,283.7740943409584A166.66666666666666,166.66666666666666 0,0,1 183.48457927648624,257.0987632055857Z" style="pointer-events: all; stroke-width: 1; fill: rgb(255, 127, 14); fill-opacity: 1; stroke: rgb(255, 255, 255); stroke-opacity: 1; opacity: 0.7;"/><g class="slicetext"><text data-notex="1" class="slicetext" text-anchor="middle" x="0" y="0" style="font-family: 'arial narrow'; font-size: 15px; fill: rgb(68, 68, 68); fill-opacity: 1; white-space: pre;" transform="translate(143.65504952239843,279.05944868774975)scale(0.6280603314723837)rotate(-7.066381156316879)">inorganic_&amp;_organic,36</text></g></g><g class="slice"><path class="surface" d="M186.7912737344421,283.7740943409584L105.1869106016631,300.6611415114376A250,250 0,0,0 111.70459326540467,325.59959741423074L191.13639551026978,300.39973160948716A166.66666666666666,166.66666666666666 0,0,1 186.7912737344421,283.7740943409584Z" style="pointer-events: all; stroke-width: 1; fill: rgb(255, 127, 14); fill-opacity: 1; stroke: rgb(255, 255, 255); stroke-opacity: 1; opacity: 0.7;"/><g class="slicetext"><text data-notex="1" class="slicetext" text-anchor="middle" x="0" y="0" style="font-family: 'arial narrow'; font-size: 15px; fill: rgb(68, 68, 68); fill-opacity: 1; white-space: pre;" transform="translate(149.2917008701721,306.0256084844362)scale(0.6280603314723837)rotate(-14.646680942184162)">inorganic_&amp;_organic,23</text></g></g><g class="slice"><path class="surface" d="M191.13639551026978,300.39973160948716L111.70459326540467,325.59959741423074A250,250 0,0,0 116.51460701453601,339.35642820985765L194.343071343024,309.5709521399051A166.66666666666666,166.66666666666666 0,0,1 191.13639551026978,300.39973160948716Z" style="pointer-events: all; stroke-width: 1; fill: rgb(255, 127, 14); fill-opacity: 1; stroke: rgb(255, 255, 255); stroke-opacity: 1; opacity: 0.7;"/><g class="slicetext"><text data-notex="1" class="slicetext" text-anchor="middle" x="0" y="0" style="font-family: 'arial narrow'; font-size: 15px; fill: rgb(68, 68, 68); fill-opacity: 1; white-space: pre;" transform="translate(137.35590219209803,328.31244318700067)scale(0.680064144612657)rotate(-19.271948608136995)">inorganic,13</text></g></g><g class="slice"><path class="surface" d="M194.343071343024,309.5709521399051L116.51460701453601,339.35642820985765A250,250 0,0,0 125.9525440565454,360.9177059141856L200.63502937103027,323.9451372761237A166.66666666666666,166.66666666666666 0,0,1 194.343071343024,309.5709521399051Z" style="pointer-events: all; stroke-width: 1; fill: rgb(255, 127, 14); fill-opacity: 1; stroke: rgb(255, 255, 255); stroke-opacity: 1; opacity: 0.7;"/><g class="slicetext"><text data-notex="1" class="slicetext" text-anchor="middle" x="0" y="0" style="font-family: 'arial narrow'; font-size: 15px; fill: rgb(68, 68, 68); fill-opacity: 1; white-space: pre;" transform="translate(160.56405370227014,336.69640691409825)scale(0.6288185004696019)rotate(-23.640256959314797)">inorganic_&amp;_organic,21</text></g></g><g class="slice"><path class="surface" d="M200.63502937103027,323.9451372761237L125.9525440565454,360.9177059141856A250,250 0,0,0 132.79630696634928,373.78431133444826L205.19753797756618,332.5228742229655A166.66666666666666,166.66666666666666 0,0,1 200.63502937103027,323.9451372761237Z" style="pointer-events: all; stroke-width: 1; fill: rgb(255, 127, 14); fill-opacity: 1; stroke: rgb(255, 255, 255); stroke-opacity: 1; opacity: 0.7;"/><g class="slicetext"><text data-notex="1" class="slicetext" text-anchor="middle" x="0" y="0" style="font-family: 'arial narrow'; font-size: 15px; fill: rgb(68, 68, 68); fill-opacity: 1; white-space: pre;" transform="translate(151.71828225412855,359.7028326808399)scale(0.680064144612657)rotate(-28.008565310492486)">inorganic,13</text></g></g><g class="slice"><path class="surface" d="M205.19753797756618,332.5228742229655L132.79630696634928,373.78431133444826A250,250 0,0,0 189.23153493900745,441.45103980373784L242.82102329267164,377.6340265358252A166.66666666666666,166.66666666666666 0,0,1 205.19753797756618,332.5228742229655Z" style="pointer-events: all; stroke-width: 1; fill: rgb(44, 160, 44); fill-opacity: 1; stroke: rgb(255, 255, 255); stroke-opacity: 1; opacity: 0.7;"/><g class="slicetext"><text data-notex="1" class="slicetext" text-anchor="middle" x="0" y="0" style="font-family: 'arial narrow'; font-size: 15px; fill: rgb(255, 255, 255); fill-opacity: 1; white-space: pre;" transform="translate(186.69554966830765,391.63359312049573)">inorganic,79</text></g></g><g class="slice"><path class="surface" d="M242.82102329267164,377.6340265358252L189.23153493900745,441.45103980373784A250,250 0,0,0 245.91451068495354,477.30202575878496L280.60967378996907,401.53468383918994A166.66666666666666,166.66666666666666 0,0,1 242.82102329267164,377.6340265358252Z" style="pointer-events: all; stroke-width: 1; fill: rgb(44, 160, 44); fill-opacity: 1; stroke: rgb(255, 255, 255); stroke-opacity: 1; opacity: 0.7;"/><g class="slicetext"><text data-notex="1" class="slicetext" text-anchor="middle" x="0" y="0" style="font-family: 'arial narrow'; font-size: 15px; fill: rgb(255, 255, 255); fill-opacity: 1; white-space: pre;" transform="translate(241.54693782521937,427.9343234189317)scale(0.6280603314723837)rotate(-57.68736616702358)">inorganic_&amp;_organic,60</text></g></g><g class="slice"><path class="surface" d="M280.60967378996907,401.53468383918994L245.91451068495354,477.30202575878496A250,250 0,0,0 303.4630825809754,495.63044460557995L318.97538838731697,413.7536297370533A166.66666666666666,166.66666666666666 0,0,1 280.60967378996907,401.53468383918994Z" style="pointer-events: all; stroke-width: 1; fill: rgb(44, 160, 44); fill-opacity: 1; stroke: rgb(255, 255, 255); stroke-opacity: 1; opacity: 0.7;"/><g class="slicetext"><text data-notex="1" class="slicetext" text-anchor="middle" x="0" y="0" style="font-family: 'arial narrow'; font-size: 15px; fill: rgb(255, 255, 255); fill-opacity: 1; white-space: pre;" transform="translate(292.0281918569293,450.1469411979168)rotate(-72.33404710920763)">inorganic,54</text></g></g><g class="slice"><path class="surface" d="M318.97538838731697,413.7536297370533L303.4630825809754,495.63044460557995A250,250 0,0,0 343.5538345020092,499.91688008290384L345.7025563346728,416.61125338860256A166.66666666666666,166.66666666666666 0,0,1 318.97538838731697,413.7536297370533Z" style="pointer-events: all; stroke-width: 1; fill: rgb(44, 160, 44); fill-opacity: 1; stroke: rgb(255, 255, 255); stroke-opacity: 1; opacity: 0.7;"/><g class="slicetext"><text data-notex="1" class="slicetext" text-anchor="middle" x="0" y="0" style="font-family: 'arial narrow'; font-size: 15px; fill: rgb(255, 255, 255); fill-opacity: 1; white-space: pre;" transform="translate(331.2843066031104,457.5389432523772)scale(0.6280603314723837)rotate(-83.89721627408994)">inorganic_&amp;_organic,36</text></g></g><g class="slice"><path class="surface" d="M345.7025563346728,416.61125338860256L343.5538345020092,499.91688008290384A250,250 0,0,0 369.3213535925411,499.25225233757067L362.88090239502736,416.1681682250471A166.66666666666666,166.66666666666666 0,0,1 345.7025563346728,416.61125338860256Z" style="pointer-events: all; stroke-width: 1; fill: rgb(44, 160, 44); fill-opacity: 1; stroke: rgb(255, 255, 255); stroke-opacity: 1; opacity: 0.7;"/><g class="slicetext"><text data-notex="1" class="slicetext" text-anchor="middle" x="0" y="0" style="font-family: 'arial narrow'; font-size: 15px; fill: rgb(255, 255, 255); fill-opacity: 1; white-space: pre;" transform="translate(351.91658469327973,458.2741783704184)scale(0.6280603314723837)rotate(88.52248394004289)">inorganic_&amp;_organic,23</text></g></g><g class="slice"><path class="surface" d="M362.88090239502736,416.1681682250471L369.3213535925411,499.25225233757067A250,250 0,0,0 382.70102205533374,497.85205901209815L371.8006813702225,415.2347060080654A166.66666666666666,166.66666666666666 0,0,1 362.88090239502736,416.1681682250471Z" style="pointer-events: all; stroke-width: 1; fill: rgb(44, 160, 44); fill-opacity: 1; stroke: rgb(255, 255, 255); stroke-opacity: 1; opacity: 0.7;"/><g class="slicetext"><text data-notex="1" class="slicetext" text-anchor="middle" x="0" y="0" style="font-family: 'arial narrow'; font-size: 15px; fill: rgb(255, 255, 255); fill-opacity: 1; white-space: pre;" transform="translate(370.2431447131137,477.0921800787943)scale(0.6369288291580764)rotate(84.02569593147769)">inorganic,12</text></g></g><g class="slice"><path class="surface" d="M371.8006813702225,415.2347060080654L382.70102205533374,497.85205901209815A250,250 0,0,0 405.8644404318066,493.6784034239414L387.242960287871,412.45226894929425A166.66666666666666,166.66666666666666 0,0,1 371.8006813702225,415.2347060080654Z" style="pointer-events: all; stroke-width: 1; fill: rgb(44, 160, 44); fill-opacity: 1; stroke: rgb(255, 255, 255); stroke-opacity: 1; opacity: 0.7;"/><g class="slicetext"><text data-notex="1" class="slicetext" text-anchor="middle" x="0" y="0" style="font-family: 'arial narrow'; font-size: 15px; fill: rgb(255, 255, 255); fill-opacity: 1; white-space: pre;" transform="translate(383.5342202844539,455.61541963443545)scale(0.6288185004696019)rotate(79.7858672376874)">inorganic_&amp;_organic,21</text></g></g><g class="slice"><path class="surface" d="M387.242960287871,412.45226894929425L405.8644404318066,493.6784034239414A250,250 0,0,0 418.8913760406026,490.32057404065984L395.9275840270684,410.21371602710656A166.66666666666666,166.66666666666666 0,0,1 387.242960287871,412.45226894929425Z" style="pointer-events: all; stroke-width: 1; fill: rgb(44, 160, 44); fill-opacity: 1; stroke: rgb(255, 255, 255); stroke-opacity: 1; opacity: 0.7;"/><g class="slicetext"><text data-notex="1" class="slicetext" text-anchor="middle" x="0" y="0" style="font-family: 'arial narrow'; font-size: 15px; fill: rgb(255, 255, 255); fill-opacity: 1; white-space: pre;" transform="translate(403.5084691791694,471.6246531569028)scale(0.6369288291580764)rotate(75.54603854389734)">inorganic,12</text></g></g><g class="slice"><path class="surface" d="M395.9275840270685,410.21371602710656L418.89137604060284,490.32057404065984A250,250 0,0,0 487.87125296187054,458.5462001733043L441.914168641247,389.0308001155362A166.66666666666666,166.66666666666666 0,0,1 395.9275840270685,410.21371602710656Z" style="pointer-events: all; stroke-width: 1; fill: rgb(214, 39, 40); fill-opacity: 1; stroke: rgb(255, 255, 255); stroke-opacity: 1; opacity: 0.7;"/><g class="slicetext"><text data-notex="1" class="slicetext" text-anchor="middle" x="0" y="0" style="font-family: 'arial narrow'; font-size: 15px; fill: rgb(255, 255, 255); fill-opacity: 1; white-space: pre;" transform="translate(432.0880149979662,441.35312063437027)rotate(65.26766595289075)">inorganic,68</text></g></g><g class="slice"><path class="surface" d="M441.914168641247,389.0308001155362L487.87125296187054,458.5462001733043A250,250 0,0,0 524.4827478943151,429.0412541490057L466.32183192954346,369.3608360993371A166.66666666666666,166.66666666666666 0,0,1 441.914168641247,389.0308001155362Z" style="pointer-events: all; stroke-width: 1; fill: rgb(214, 39, 40); fill-opacity: 1; stroke: rgb(255, 255, 255); stroke-opacity: 1; opacity: 0.7;"/><g class="slicetext"><text data-notex="1" class="slicetext" text-anchor="middle" x="0" y="0" style="font-family: 'arial narrow'; font-size: 15px; fill: rgb(255, 255, 255); fill-opacity: 1; white-space: pre;" transform="translate(477.9876511827124,414.31971220000264)scale(0.6280603314723837)rotate(51.134903640256994)">inorganic_&amp;_organic,42</text></g></g><g class="slice"><path class="surface" d="M466.32183192954346,369.3608360993371L524.4827478943151,429.0412541490057A250,250 0,0,0 561.7342928808171,382.92324559030453L491.15619525387797,338.615497060203A166.66666666666666,166.66666666666666 0,0,1 466.32183192954346,369.3608360993371Z" style="pointer-events: all; stroke-width: 1; fill: rgb(214, 39, 40); fill-opacity: 1; stroke: rgb(255, 255, 255); stroke-opacity: 1; opacity: 0.7;"/><g class="slicetext"><text data-notex="1" class="slicetext" text-anchor="middle" x="0" y="0" style="font-family: 'arial narrow'; font-size: 15px; fill: rgb(255, 255, 255); fill-opacity: 1; white-space: pre;" transform="translate(508.4642403361089,385.0686622333918)rotate(38.92933618843688)">inorganic,53</text></g></g><g class="slice"><path class="surface" d="M491.15619525387797,338.615497060203L561.7342928808171,382.92324559030453A250,250 0,0,0 577.185182626077,354.34027408031864L501.4567884173847,319.5601827202124A166.66666666666666,166.66666666666666 0,0,1 491.15619525387797,338.615497060203Z" style="pointer-events: all; stroke-width: 1; fill: rgb(214, 39, 40); fill-opacity: 1; stroke: rgb(255, 255, 255); stroke-opacity: 1; opacity: 0.7;"/><g class="slicetext"><text data-notex="1" class="slicetext" text-anchor="middle" x="0" y="0" style="font-family: 'arial narrow'; font-size: 15px; fill: rgb(255, 255, 255); fill-opacity: 1; white-space: pre;" transform="translate(531.5583600202161,352.0704099116338)scale(0.6280603314723837)rotate(28.394004282655317)">inorganic_&amp;_organic,29</text></g></g><g class="slice"><path class="surface" d="M501.4567884173847,319.5601827202124L577.185182626077,354.34027408031864A250,250 0,0,0 584.8591776104644,335.6806086120796L506.5727850736429,307.1204057413864A166.66666666666666,166.66666666666666 0,0,1 501.4567884173847,319.5601827202124Z" style="pointer-events: all; stroke-width: 1; fill: rgb(214, 39, 40); fill-opacity: 1; stroke: rgb(255, 255, 255); stroke-opacity: 1; opacity: 0.7;"/><g class="slicetext"><text data-notex="1" class="slicetext" text-anchor="middle" x="0" y="0" style="font-family: 'arial narrow'; font-size: 15px; fill: rgb(255, 255, 255); fill-opacity: 1; white-space: pre;" transform="translate(541.2885057347863,332.4045766114478)scale(0.6280603314723837)rotate(22.35546038543896)">inorganic_&amp;_organic,18</text></g></g><g class="slice"><path class="surface" d="M506.5727850736429,307.1204057413864L584.8591776104644,335.6806086120796A250,250 0,0,0 588.4643314905286,325.0650558300953L508.9762209936857,300.04337055339687A166.66666666666666,166.66666666666666 0,0,1 506.5727850736429,307.1204057413864Z" style="pointer-events: all; stroke-width: 1; fill: rgb(214, 39, 40); fill-opacity: 1; stroke: rgb(255, 255, 255); stroke-opacity: 1; opacity: 0.7;"/><g class="slicetext"><text data-notex="1" class="slicetext" text-anchor="middle" x="0" y="0" style="font-family: 'arial narrow'; font-size: 15px; fill: rgb(255, 255, 255); fill-opacity: 1; white-space: pre;" transform="translate(567.8510196611354,327.16038114090554)scale(0.5467612627122088)rotate(18.758029978586706)">inorganic,10</text></g></g><g class="slice"><path class="surface" d="M508.9762209936857,300.04337055339687L588.4643314905286,325.0650558300953A250,250 0,0,0 593.4891202742632,306.683757003796L512.3260801828421,287.789171335864A166.66666666666666,166.66666666666666 0,0,1 508.9762209936857,300.04337055339687Z" style="pointer-events: all; stroke-width: 1; fill: rgb(214, 39, 40); fill-opacity: 1; stroke: rgb(255, 255, 255); stroke-opacity: 1; opacity: 0.7;"/><g class="slicetext"><text data-notex="1" class="slicetext" text-anchor="middle" x="0" y="0" style="font-family: 'arial narrow'; font-size: 15px; fill: rgb(255, 255, 255); fill-opacity: 1; white-space: pre;" transform="translate(549.9728786898771,308.24649741609414)scale(0.6280603314723837)rotate(15.28907922912208)">inorganic_&amp;_organic,17</text></g></g><g class="slice"><path class="surface" d="M512.3260801828421,287.789171335864L593.4891202742632,306.683757003796A250,250 0,0,0 595.1483539218491,299.01310609834707L513.4322359478994,282.6754040655647A166.66666666666666,166.66666666666666 0,0,1 512.3260801828421,287.789171335864Z" style="pointer-events: all; stroke-width: 1; fill: rgb(214, 39, 40); fill-opacity: 1; stroke: rgb(255, 255, 255); stroke-opacity: 1; opacity: 0.7;"/><g class="slicetext"><text data-notex="1" class="slicetext" text-anchor="middle" x="0" y="0" style="font-family: 'arial narrow'; font-size: 15px; fill: rgb(255, 255, 255); fill-opacity: 1; white-space: pre;" transform="translate(581.572903994965,302.3726635320765)scale(0.4054013941815746)rotate(12.205567451820116)">inorganic,7</text></g></g><g class="slice"><path class="surface" d="M513.4322359478994,282.6754040655647L595.1483539218491,299.01310609834707A250,250 0,0,0 597.7406643380509,283.5345080974979L515.160442892034,272.35633873166523A166.66666666666666,166.66666666666666 0,0,1 513.4322359478994,282.6754040655647Z" style="pointer-events: all; stroke-width: 1; fill: rgb(148, 103, 189); fill-opacity: 1; stroke: rgb(255, 255, 255); stroke-opacity: 1; opacity: 0.7;"/><g class="slicetext"><text data-notex="1" class="slicetext" text-anchor="middle" x="0" y="0" style="font-family: 'arial narrow'; font-size: 15px; fill: rgb(255, 255, 255); fill-opacity: 1; white-space: pre;" transform="translate(556.0418484003168,287.9076173718597)scale(0.6097496456946779)rotate(9.507494646680982)">inorganic_&amp;_organic,14</text></g></g><g class="slice"><path class="surface" d="M515.160442892034,272.35633873166523L597.7406643380509,283.5345080974979A250,250 0,0,0 598.1694133728535,280.19838184694345L515.4462755819022,270.13225456462897A166.66666666666666,166.66666666666666 0,0,1 515.160442892034,272.35633873166523Z" style="pointer-events: all; stroke-width: 1; fill: rgb(148, 103, 189); fill-opacity: 1; stroke: rgb(255, 255, 255); stroke-opacity: 1; opacity: 0.7;"/><g class="slicetext"><text data-notex="1" class="slicetext" text-anchor="middle" x="0" y="0" style="font-family: 'arial narrow'; font-size: 15px; fill: rgb(255, 255, 255); fill-opacity: 1; white-space: pre;" transform="translate(592.1609124335037,282.1438227899537)scale(0.18430630735926168)rotate(7.323340471092138)">inorganic,3</text></g></g><g class="slice"><path class="surface" d="M515.4462755819022,270.13225456462897L598.1694133728535,280.19838184694345A250,250 0,0,0 599.0929360971184,271.2769637523052L516.0619573980789,264.1846425015368A166.66666666666666,166.66666666666666 0,0,1 515.4462755819022,270.13225456462897Z" style="pointer-events: all; stroke-width: 1; fill: rgb(148, 103, 189); fill-opacity: 1; stroke: rgb(255, 255, 255); stroke-opacity: 1; opacity: 0.7;"/><g class="slicetext"><text data-notex="1" class="slicetext" text-anchor="middle" x="0" y="0" style="font-family: 'arial narrow'; font-size: 15px; fill: rgb(255, 255, 255); fill-opacity: 1; white-space: pre;" transform="translate(572.8250860353577,275.32843769336705)scale(0.4091131449803017)rotate(5.910064239828728)">inorganic_&amp;_organic,8</text></g></g><g class="slice"><path class="surface" d="M516.0619573980789,264.1846425015368L599.0929360971184,271.2769637523052A250,250 0,0,0 599.4345265640993,266.8052657742634L516.2896843760661,261.2035105161756A166.66666666666666,166.66666666666666 0,0,1 516.0619573980789,264.1846425015368Z" style="pointer-events: all; stroke-width: 1; fill: rgb(148, 103, 189); fill-opacity: 1; stroke: rgb(255, 255, 255); stroke-opacity: 1; opacity: 0.7;"/><g class="slicetext"><text data-notex="1" class="slicetext" text-anchor="middle" x="0" y="0" style="font-family: 'arial narrow'; font-size: 15px; fill: rgb(255, 255, 255); fill-opacity: 1; white-space: pre;" transform="translate(591.683287306063,269.79727364605236)scale(0.24206289310534163)rotate(4.368308351177802)">inorganic,4</text></g></g><g class="slice"><path class="surface" d="M516.2896843760661,261.2035105161756L599.4345265640993,266.8052657742634A250,250 0,0,0 599.8391108099169,258.96764794748833L516.5594072066112,255.9784319649922A166.66666666666666,166.66666666666666 0,0,1 516.2896843760661,261.2035105161756Z" style="pointer-events: all; stroke-width: 1; fill: rgb(148, 103, 189); fill-opacity: 1; stroke: rgb(255, 255, 255); stroke-opacity: 1; opacity: 0.7;"/><g class="slicetext"><text data-notex="1" class="slicetext" text-anchor="middle" x="0" y="0" style="font-family: 'arial narrow'; font-size: 15px; fill: rgb(255, 255, 255); fill-opacity: 1; white-space: pre;" transform="translate(576.4699176739626,263.714028897611)scale(0.3674137866010954)rotate(2.9550321199143355)">inorganic_&amp;_organic,7</text></g></g><g class="slice"><path class="surface" d="M516.5594072066112,255.9784319649922L599.8391108099169,258.96764794748833A250,250 0,0,0 599.8768161167789,257.84708655116435L516.5845440778526,255.23139103410958A166.66666666666666,166.66666666666666 0,0,1 516.5594072066112,255.9784319649922Z" style="pointer-events: all; stroke-width: 1; fill: rgb(148, 103, 189); fill-opacity: 1; stroke: rgb(255, 255, 255); stroke-opacity: 1; opacity: 0.7;"/><g class="slicetext"><text data-notex="1" class="slicetext" text-anchor="middle" x="0" y="0" style="font-family: 'arial narrow'; font-size: 15px; fill: rgb(255, 255, 255); fill-opacity: 1; white-space: pre;" transform="translate(597.8936262787336,258.689967793737)scale(0.06336372338860832)rotate(1.9271948608137563)">inorganic,1</text></g></g><g class="slice"><path class="surface" d="M516.5845440778526,255.23139103410958L599.8768161167789,257.84708655116435A250,250 0,0,0 599.9974858409338,251.12119276313302L516.6649905606225,250.74746184208868A166.66666666666666,166.66666666666666 0,0,1 516.5845440778526,255.23139103410958Z" style="pointer-events: all; stroke-width: 1; fill: rgb(148, 103, 189); fill-opacity: 1; stroke: rgb(255, 255, 255); stroke-opacity: 1; opacity: 0.7;"/><g class="slicetext"><text data-notex="1" class="slicetext" text-anchor="middle" x="0" y="0" style="font-family: 'arial narrow'; font-size: 15px; fill: rgb(255, 255, 255); fill-opacity: 1; white-space: pre;" transform="translate(579.5756839612701,255.89812640108514)scale(0.32345580643682487)rotate(1.0278372591006928)">inorganic_&amp;_organic,6</text></g></g><g class="slice"><path class="surface" d="M516.6649905606225,250.74746184208868L599.9974858409338,251.12119276313302A250,250 0,0,0 600,250.00000000000028L516.6666666666666,250.0000000000002A166.66666666666666,166.66666666666666 0,0,1 516.6649905606225,250.74746184208868Z" style="pointer-events: all; stroke-width: 1; fill: rgb(148, 103, 189); fill-opacity: 1; stroke: rgb(255, 255, 255); stroke-opacity: 1; opacity: 0.7;"/><g class="slicetext"><text data-notex="1" class="slicetext" text-anchor="middle" x="0" y="0" style="font-family: 'arial narrow'; font-size: 15px; fill: rgb(255, 255, 255); fill-opacity: 1; white-space: pre;" transform="translate(598.0442439983076,250.90471497426086)scale(0.06336372338860832)rotate(0.12847965738762923)">inorganic,1</text></g></g></g></g><g class="glimages"/><defs id="topdefs-8afaac"><g class="clips"/></defs><g class="layer-above"><g class="imagelayer"/><g class="shapelayer"/></g><g class="infolayer"><g class="g-gtitle"/></g></svg>